HIERARCHY
ROOT Hips
{
	OFFSET 0.000000 0.000000 0.000000
	CHANNELS 6 Xposition Yposition Zposition Zrotation Yrotation Xrotation 
	JOINT LHipJoint
	{
		OFFSET 0.000000 0.000000 0.000000
		CHANNELS 3 Zrotation Yrotation Xrotation
		JOINT LeftUpLeg
		{
			OFFSET 1.363060 -1.794630 0.839290
			CHANNELS 3 Zrotation Yrotation Xrotation
			JOINT LeftLeg
			{
				OFFSET 2.448110 -6.726130 0.000000
				CHANNELS 3 Zrotation Yrotation Xrotation
				JOINT LeftFoot
				{
					OFFSET 2.562200 -7.039590 0.000000
					CHANNELS 3 Zrotation Yrotation Xrotation
					JOINT LeftToeBase
					{
						OFFSET 0.157640 -0.433110 2.322550
						CHANNELS 3 Zrotation Yrotation Xrotation
						End Site
						{
							OFFSET 0.000000 0.000000 0.000000
						}
					}
				}
			}
		}
	}
	JOINT RHipJoint
	{
		OFFSET 0.000000 0.000000 0.000000
		CHANNELS 3 Zrotation Yrotation Xrotation
		JOINT RightUpLeg
		{
			OFFSET -1.305520 -1.794630 0.839290
			CHANNELS 3 Zrotation Yrotation Xrotation
			JOINT RightLeg
			{
				OFFSET -2.542530 -6.985550 0.000000
				CHANNELS 3 Zrotation Yrotation Xrotation
				JOINT RightFoot
				{
					OFFSET -2.568260 -7.056230 0.000000
					CHANNELS 3 Zrotation Yrotation Xrotation
					JOINT RightToeBase
					{
						OFFSET -0.164730 -0.452590 2.363150
						CHANNELS 3 Zrotation Yrotation Xrotation
						End Site
						{
							OFFSET 0.000000 0.000000 0.000000
						}
					}
				}
			}
		}
	}
	JOINT LowerBack
	{
		OFFSET 0.000000 0.000000 0.000000
		CHANNELS 3 Zrotation Yrotation Xrotation
		JOINT Spine
		{
			OFFSET 0.028270 2.035590 -0.193380
			CHANNELS 3 Zrotation Yrotation Xrotation
			JOINT Spine1
			{
				OFFSET 0.056720 2.048850 -0.042750
				CHANNELS 3 Zrotation Yrotation Xrotation
				JOINT Neck
				{
					OFFSET 0.000000 0.000000 0.000000
					CHANNELS 3 Zrotation Yrotation Xrotation
					JOINT Neck1
					{
						OFFSET -0.054170 1.746240 0.172020
						CHANNELS 3 Zrotation Yrotation Xrotation
						JOINT Head
						{
							OFFSET 0.104070 1.761360 -0.123970
							CHANNELS 3 Zrotation Yrotation Xrotation
							End Site
							{
								OFFSET 0.000000 0.000000 0.000000
							}
						}
					}
				}
				JOINT LeftShoulder
				{
					OFFSET 0.000000 0.000000 0.000000
					CHANNELS 3 Zrotation Yrotation Xrotation
					JOINT LeftArm
					{
						OFFSET 3.362410 1.200890 -0.311210
						CHANNELS 3 Zrotation Yrotation Xrotation
						JOINT LeftForeArm
						{
							OFFSET 4.983000 -0.000000 -0.000000
							CHANNELS 3 Zrotation Yrotation Xrotation
							JOINT LeftHand
							{
								OFFSET 3.483560 -0.000000 -0.000000
								CHANNELS 3 Zrotation Yrotation Xrotation
								JOINT LeftFingerBase
								{
									OFFSET 0.000000 0.000000 0.000000
									CHANNELS 3 Zrotation Yrotation Xrotation
									JOINT LeftHandIndex1
									{
										OFFSET 0.715260 -0.000000 -0.000000
										CHANNELS 3 Zrotation Yrotation Xrotation
										End Site
										{
											OFFSET 0.000000 0.000000 0.000000
										}
									}
								}
								JOINT LThumb
								{
									OFFSET 0.000000 0.000000 0.000000
									CHANNELS 3 Zrotation Yrotation Xrotation
									End Site
									{
										OFFSET 0.000000 0.000000 0.000000
									}
								}
							}
						}
					}
				}
				JOINT RightShoulder
				{
					OFFSET 0.000000 0.000000 0.000000
					CHANNELS 3 Zrotation Yrotation Xrotation
					JOINT RightArm
					{
						OFFSET -3.136600 1.374050 -0.404650
						CHANNELS 3 Zrotation Yrotation Xrotation
						JOINT RightForeArm
						{
							OFFSET -5.241900 -0.000000 -0.000000
							CHANNELS 3 Zrotation Yrotation Xrotation
							JOINT RightHand
							{
								OFFSET -3.444170 -0.000000 -0.000000
								CHANNELS 3 Zrotation Yrotation Xrotation
								JOINT RightFingerBase
								{
									OFFSET 0.000000 0.000000 0.000000
									CHANNELS 3 Zrotation Yrotation Xrotation
									JOINT RightHandIndex1
									{
										OFFSET -0.622530 -0.000000 -0.000000
										CHANNELS 3 Zrotation Yrotation Xrotation
										End Site
										{
											OFFSET 0.000000 0.000000 0.000000
										}
									}
								}
								JOINT RThumb
								{
									OFFSET 0.000000 0.000000 0.000000
									CHANNELS 3 Zrotation Yrotation Xrotation
									End Site
									{
										OFFSET 0.000000 0.000000 0.000000
									}
								}
							}
						}
					}
				}
			}
		}
	}
}
MOTION
Frames: 9
Frame Time: 0.008333
16.305856 16.038889 -7.336712 -13.039400 -86.802267 19.701540 -1.891622 -4.527276 -8.936319 -11.873197 -1.808875 -20.421669 6.832923 19.508796 73.463668 -9.051271 5.945678 9.636721 -1.063848 1.260551 1.512096 2.414957 3.879036 -7.850306 19.101023 -2.464542 -34.880417 -1.661699 -16.184087 31.707628 4.024223 8.098752 -6.441889 2.264466 -6.974181 -0.094513 -2.498993 0.045270 21.381507 3.480935 -1.288268 -10.134820 2.530887 -2.689377 -2.455193 -2.259308 0.600808 -9.245689 3.006240 0.074721 9.948005 2.849299 -1.893282 17.812850 12.268038 -3.992609 0.406590 -83.289819 -18.204016 22.089601 169.891667 -61.987792 -161.200109 -31.425308 20.839967 -8.752808 0.000001 -0.000001 0.000002 -0.000000 0.000000 0.000000 0.000000 0.000000 0.000000 -8.265952 3.475485 2.553911 72.724034 14.496752 15.646969 -76.317119 77.522221 -63.537170 17.818278 -5.838559 -1.497591 -0.000000 -0.000000 0.000000 -0.000000 -0.000000 -0.000000 -0.000000 -0.000000 0.000000 
15.988138 15.952853 -7.375781 -5.991548 -86.982980 12.399444 -1.901860 -4.224619 -8.815320 -11.593783 -2.295899 -22.127852 8.406326 19.862542 75.023132 -8.624997 5.206885 9.380779 -0.612427 1.425195 0.152899 3.068749 3.766948 -7.756928 18.463589 -2.286709 -35.572817 -2.821614 -16.925324 35.740080 0.040769 7.028673 -8.157606 1.667755 -6.130305 -1.261384 -2.773070 0.032490 21.195492 3.416627 -1.101799 -9.897070 2.530971 -2.543276 -2.166602 -2.498606 0.659153 -9.226425 2.817164 0.150091 9.652596 3.189706 -2.248215 18.021247 12.046935 -3.708782 0.431518 -83.324110 -17.722267 21.656836 169.603950 -62.692246 -161.295218 -28.808560 20.827208 -8.226348 0.000001 -0.000001 0.000002 0.000000 0.000000 -0.000000 0.000000 -0.000000 -0.000000 -8.566989 3.652441 2.574063 72.586531 15.586689 14.354157 -73.737753 78.642456 -59.676386 17.974373 -4.028179 -0.949036 0.000000 0.000000 -0.000000 -0.000000 0.000000 0.000000 0.000000 0.000000 -0.000000 
15.678679 15.867718 -7.409565 2.826648 -87.114697 3.394771 -2.019834 -4.051685 -8.708981 -11.290690 -2.505370 -24.088711 9.455079 19.772223 76.375221 -7.868488 4.319220 9.105804 -0.288086 0.018752 0.717586 3.618148 3.856612 -7.701275 17.724520 -2.325944 -36.019121 -3.550654 -17.153996 39.227221 -2.470584 5.296342 -9.305975 0.007019 -1.696798 -1.750698 -3.017603 -0.007119 21.140764 3.334183 -0.800197 -9.758714 2.209391 -2.233833 -1.870893 -2.472072 0.685424 -9.238101 2.591128 0.149532 9.330927 3.316391 -2.730404 17.719482 11.979739 -3.626196 0.396467 -83.403523 -17.284307 20.836753 169.837468 -63.735048 -162.003979 -26.606075 20.766644 -7.771024 0.000001 -0.000001 0.000002 -0.000000 -0.000000 -0.000000 0.000000 -0.000000 0.000000 -8.455754 3.695265 2.768690 72.238159 16.850263 13.827988 -73.410722 78.819478 -60.696658 18.063747 -5.064054 -1.269165 -0.000000 -0.000000 0.000000 -0.000000 0.000000 0.000000 -0.000000 -0.000000 0.000000 
15.371922 15.772673 -7.439129 11.075976 -87.100509 -5.126648 -2.107236 -3.937141 -8.688058 -10.841348 -3.039600 -25.743455 10.512512 20.047058 77.617049 -7.459570 3.578304 8.823412 -0.078064 0.648738 -0.448089 3.900647 3.965390 -7.682638 17.298052 -2.490466 -36.297128 -3.666078 -16.748104 42.645617 -5.786264 2.555723 -10.291888 -1.853636 0.687837 -4.902434 -3.100663 -0.077228 21.114281 3.207891 -0.653435 -9.534981 1.652162 -2.041417 -1.416218 -2.240014 0.722880 -9.395402 2.397827 0.129405 8.970544 3.343894 -3.065233 17.394178 12.266203 -3.270685 0.389191 -83.543350 -17.038203 19.871794 170.361541 -64.797986 -163.225847 -24.337664 20.843985 -7.364563 0.000001 -0.000001 0.000002 0.000000 0.000000 -0.000000 0.000000 -0.000000 -0.000000 -8.267146 3.758888 2.987915 71.926302 18.433899 12.585993 -71.057303 79.684882 -58.346918 17.676248 -4.375511 -1.047794 -0.000000 0.000000 -0.000000 -0.000000 -0.000000 0.000000 -0.000000 0.000000 -0.000000 
15.066667 15.672823 -7.472673 20.759862 -87.105700 -15.118268 -2.102507 -3.880098 -8.586992 -10.531010 -3.281633 -27.513462 10.779424 20.028566 78.794266 -6.087915 3.239359 8.415084 1.108883 -1.309818 -1.488959 4.152387 4.151547 -7.791041 16.867061 -2.675693 -36.309210 -3.400425 -16.080291 45.937970 -9.017349 -0.737339 -10.844555 -4.080596 0.345083 -11.761016 -3.341123 -0.189572 21.097009 3.108044 -0.555022 -9.267902 1.208342 -1.910525 -0.852441 -2.060229 0.650668 -9.654361 2.223610 0.021567 8.578602 2.836266 -3.514958 17.391957 12.540178 -2.526368 0.597518 -83.702085 -17.095344 18.560993 171.804656 -65.926212 -166.081318 -24.195010 21.650786 -7.643280 0.000001 -0.000001 0.000002 0.000000 -0.000000 -0.000000 0.000000 0.000000 0.000000 -8.213588 4.059131 3.097877 71.608525 20.081696 11.137673 -67.636838 80.685195 -55.006612 17.469436 -3.887996 -0.895661 -0.000000 0.000000 0.000000 -0.000000 0.000000 -0.000000 -0.000000 0.000000 0.000000 
14.765571 15.566066 -7.499294 28.167868 -86.975023 -22.746145 -1.930746 -3.711203 -8.525918 -10.479851 -3.713531 -29.329741 11.312062 19.993506 79.428671 -5.738572 3.009614 7.682312 1.989261 -0.345973 -4.617264 4.141748 4.217184 -7.871182 16.543479 -2.410559 -35.932887 -3.150072 -15.872703 48.564986 -12.377717 -3.974941 -11.541862 -4.927007 -2.263790 -17.639818 -3.469743 -0.271612 21.108785 2.961836 -0.313329 -8.964371 0.796222 -1.616372 -0.300312 -1.937645 0.737745 -9.877442 2.087365 0.061543 8.113067 3.167231 -3.762932 17.013893 12.848651 -2.282449 0.550576 -83.997048 -16.917372 17.433045 171.966918 -67.165822 -166.460452 -21.806627 20.924996 -6.912110 0.000001 -0.000001 0.000002 0.000000 -0.000000 -0.000000 -0.000000 0.000000 -0.000000 -8.233154 3.938001 3.335829 71.342047 22.087943 10.033066 -64.057733 81.311770 -52.268760 16.879926 -4.597087 -1.093167 0.000000 -0.000000 0.000000 0.000000 0.000000 0.000000 0.000000 -0.000000 0.000000 
14.458964 15.458408 -7.525856 32.072402 -86.698911 -26.773844 -1.714417 -3.393241 -8.484408 -10.520536 -4.372431 -31.177995 12.009021 19.869685 79.711987 -4.757633 2.460575 7.075376 2.759948 -1.161935 -5.632102 4.126538 4.124416 -7.785301 16.486152 -2.228722 -35.736623 -3.442057 -15.853184 50.908495 -16.232209 -6.603487 -11.914271 -5.592552 -3.768892 -21.848976 -3.554893 -0.445832 21.012139 2.874429 -0.228011 -8.651651 0.387941 -1.523034 0.395204 -1.760529 0.835866 -10.171510 1.959858 0.081903 7.593329 3.538448 -4.122358 17.047850 13.121782 -1.683579 0.597903 -84.325676 -16.821141 16.003766 172.563859 -68.580286 -168.129994 -19.569035 21.125660 -6.557497 0.000001 -0.000001 0.000002 -0.000000 0.000000 0.000000 0.000000 0.000000 -0.000000 -8.177325 4.101740 3.477742 71.012378 24.254391 8.899187 -59.455348 81.896829 -47.094384 16.200569 -2.738730 -0.537201 0.000000 0.000000 -0.000000 0.000000 0.000000 -0.000000 0.000000 0.000000 -0.000000 
14.162372 15.372222 -7.546922 33.871705 -86.317574 -28.646318 -1.942445 -3.389457 -8.547505 -9.946242 -4.907510 -32.875044 11.563896 19.657242 79.688625 -3.383344 2.846833 6.432952 3.563901 -1.103694 -7.598798 4.445539 4.185744 -7.793720 15.684655 -2.027703 -35.247530 -3.587946 -16.433497 52.750897 -19.968238 -9.048970 -11.527060 -6.939969 -3.481137 -25.266287 -3.487411 -0.548759 21.183485 2.787514 -0.073232 -8.556780 0.084251 -1.403799 1.086647 -1.739442 0.920444 -10.575969 1.746959 0.130640 7.087352 3.838193 -4.490603 16.938962 12.953000 -1.318266 0.604882 -84.517203 -16.899225 14.428242 173.904470 -70.104642 -169.891733 -16.657759 20.504482 -5.822416 0.000001 -0.000001 0.000002 -0.000000 -0.000000 0.000000 0.000000 0.000000 -0.000000 -7.966199 3.855407 3.949472 70.357567 26.780314 8.287626 -56.849316 81.945607 -46.729514 15.151343 -5.192414 -1.212436 0.000000 -0.000000 0.000000 0.000000 0.000000 0.000000 0.000000 -0.000000 0.000000 
13.864595 15.277477 -7.560661 34.036944 -86.039651 -29.000729 -2.100825 -3.299285 -8.609198 -9.390387 -5.431256 -34.443105 11.848614 19.533173 79.608050 -3.028746 2.966299 6.086990 3.983762 -0.471891 -9.270187 4.668679 4.106722 -7.794770 15.058862 -1.530194 -34.509862 -4.555734 -17.794343 54.342840 -21.517172 -10.392410 -11.291447 -8.177331 -3.541879 -28.792429 -3.195000 -0.738809 21.369367 2.666410 -0.035812 -8.378300 -0.092361 -1.456510 1.481967 -1.889380 1.014345 -10.676100 1.568185 0.222374 6.578167 4.041336 -4.654592 16.089496 12.686836 -0.687283 0.847261 -84.769513 -16.869755 12.691905 175.810644 -71.646165 -173.113427 -15.138602 21.098628 -5.721308 0.000001 -0.000001 0.000002 0.000000 0.000000 -0.000000 -0.000000 -0.000000 0.000000 -8.068093 4.089867 4.358359 69.716832 29.064093 6.772395 -48.888157 82.584338 -39.045952 15.342354 -4.323547 -0.974243 -0.000000 0.000000 -0.000000 -0.000000 0.000000 -0.000000 -0.000000 0.000000 -0.000000 
